HIERARCHY
ROOT hip
{
  OFFSET 0.0 0.0 0.0
  CHANNELS 6 Xposition Yposition Zposition Zrotation Yrotation Xrotation
  JOINT abdomen
  {
    OFFSET 0.0 20.6881 -0.73152
    CHANNELS 3 Zrotation Xrotation Yrotation
    JOINT chest
    {
      OFFSET 0.0 11.7043 -0.48768
      CHANNELS 3 Zrotation Xrotation Yrotation
      JOINT neck
      {
        OFFSET 0.0 22.1894 -2.19456
        CHANNELS 3 Zrotation Xrotation Yrotation
        JOINT head
        {
          OFFSET -0.24384 7.07133 1.2192
          CHANNELS 3 Zrotation Xrotation Yrotation
          JOINT leftEye
          {
            OFFSET 4.14528 8.04674 8.04672
            CHANNELS 3 Zrotation Xrotation Yrotation
            End Site
            {
              OFFSET 1.0 0.0 0.0
            }
          }
          JOINT rightEye
          {
            OFFSET -3.6576 8.04674 8.04672
            CHANNELS 3 Zrotation Xrotation Yrotation
            End Site
            {
              OFFSET 1.0 0.0 0.0
            }
          }
        }
      }
      JOINT rCollar
      {
        OFFSET -2.68224 19.2634 -4.8768
        CHANNELS 3 Zrotation Xrotation Yrotation
        JOINT rShldr
        {
          OFFSET -8.77824 -1.95073 1.46304
          CHANNELS 3 Zrotation Xrotation Yrotation
          JOINT rForeArm
          {
            OFFSET -28.1742 -1.7115 0.48768
            CHANNELS 3 Zrotation Xrotation Yrotation
            JOINT rHand
            {
              OFFSET -22.5879 0.773209 7.07136
              CHANNELS 3 Zrotation Xrotation Yrotation
              JOINT rThumb1
              {
                OFFSET -1.2192 -0.487915 3.41376
                CHANNELS 3 Zrotation Xrotation Yrotation
                JOINT rThumb2
                {
                  OFFSET -3.37035 -0.52449 3.41376
                  CHANNELS 3 Zrotation Xrotation Yrotation
                  End Site
                  {
                    OFFSET -1.78271 -1.18214 1.43049
                  }
                }
              }
              JOINT rIndex1
              {
                OFFSET -7.75947 0.938293 5.60832
                CHANNELS 3 Zrotation Xrotation Yrotation
                JOINT rIndex2
                {
                  OFFSET -2.54057 -0.884171 1.56538
                  CHANNELS 3 Zrotation Xrotation Yrotation
                  End Site
                  {
                    OFFSET -1.62519 -0.234802 1.16502
                  }
                }
              }
              JOINT rMid1
              {
                OFFSET -8.24714 1.18213 3.41376
                CHANNELS 3 Zrotation Xrotation Yrotation
                JOINT rMid2
                {
                  OFFSET -3.10165 -0.590103 1.0647
                  CHANNELS 3 Zrotation Xrotation Yrotation
                  End Site
                  {
                    OFFSET -2.48547 -0.328903 0.83742
                  }
                }
              }
              JOINT rRing1
              {
                OFFSET -8.82822 0.546677 1.51678
                CHANNELS 3 Zrotation Xrotation Yrotation
                JOINT rRing2
                {
                  OFFSET -2.60934 -0.819778 -0.0198488
                  CHANNELS 3 Zrotation Xrotation Yrotation
                  End Site
                  {
                    OFFSET -2.33842 -0.294052 0.168128
                  }
                }
              }
              JOINT rPinky1
              {
                OFFSET -8.27202 -0.0477905 -0.4584
                CHANNELS 3 Zrotation Xrotation Yrotation
                JOINT rPinky2
                {
                  OFFSET -1.82734 -0.647385 -0.700984
                  CHANNELS 3 Zrotation Xrotation Yrotation
                  End Site
                  {
                    OFFSET -1.69225 -0.51767 -0.607171
                  }
                }
              }
            }
          }
        }
      }
      JOINT lCollar
      {
        OFFSET 2.68224 19.2634 -4.8768
        CHANNELS 3 Zrotation Xrotation Yrotation
        JOINT lShldr
        {
          OFFSET 8.77824 -1.95073 1.46304
          CHANNELS 3 Zrotation Xrotation Yrotation
          JOINT lForeArm
          {
            OFFSET 28.1742 -1.7115 0.48768
            CHANNELS 3 Zrotation Xrotation Yrotation
            JOINT lHand
            {
              OFFSET 22.5879 0.773209 7.07136
              CHANNELS 3 Zrotation Xrotation Yrotation
              JOINT lThumb1
              {
                OFFSET 1.2192 -0.487915 3.41376
                CHANNELS 3 Zrotation Xrotation Yrotation
                JOINT lThumb2
                {
                  OFFSET 3.37035 -0.52449 3.41376
                  CHANNELS 3 Zrotation Xrotation Yrotation
                  End Site
                  {
                    OFFSET 1.78271 -1.18214 1.43049
                  }
                }
              }
              JOINT lIndex1
              {
                OFFSET 7.75947 0.938293 5.60832
                CHANNELS 3 Zrotation Xrotation Yrotation
                JOINT lIndex2
                {
                  OFFSET 2.54057 -0.884171 1.56538
                  CHANNELS 3 Zrotation Xrotation Yrotation
                  End Site
                  {
                    OFFSET 1.62519 -0.234802 1.16502
                  }
                }
              }
              JOINT lMid1
              {
                OFFSET 8.24714 1.18213 3.41376
                CHANNELS 3 Zrotation Xrotation Yrotation
                JOINT lMid2
                {
                  OFFSET 3.10165 -0.590103 1.0647
                  CHANNELS 3 Zrotation Xrotation Yrotation
                  End Site
                  {
                    OFFSET 2.48547 -0.328903 0.83742
                  }
                }
              }
              JOINT lRing1
              {
                OFFSET 8.82822 0.546677 1.51678
                CHANNELS 3 Zrotation Xrotation Yrotation
                JOINT lRing2
                {
                  OFFSET 2.60934 -0.819778 -0.0198488
                  CHANNELS 3 Zrotation Xrotation Yrotation
                  End Site
                  {
                    OFFSET 2.33842 -0.294052 0.168128
                  }
                }
              }
              JOINT lPinky1
              {
                OFFSET 8.27202 -0.0477905 -0.4584
                CHANNELS 3 Zrotation Xrotation Yrotation
                JOINT lPinky2
                {
                  OFFSET 1.82734 -0.647385 -0.700984
                  CHANNELS 3 Zrotation Xrotation Yrotation
                  End Site
                  {
                    OFFSET 1.69225 -0.51767 -0.607171
                  }
                }
              }
            }
          }
        }
      }
    }
  }
  JOINT rButtock
  {
    OFFSET -8.77824 4.35084 1.2192
    CHANNELS 3 Zrotation Xrotation Yrotation
    JOINT rThigh
    {
      OFFSET 0.0 -1.70687 -2.19456
      CHANNELS 3 Zrotation Xrotation Yrotation
      JOINT rShin
      {
        OFFSET 0.0 -36.8199 0.73152
        CHANNELS 3 Zrotation Xrotation Yrotation
        JOINT rFoot
        {
          OFFSET 0.73152 -45.1104 -5.12064
          CHANNELS 3 Zrotation Xrotation Yrotation
          End Site
          {
            OFFSET -1.1221 -3.69964 12.103
          }
        }
      }
    }
  }
  JOINT lButtock
  {
    OFFSET 8.77824 4.35084 1.2192
    CHANNELS 3 Zrotation Xrotation Yrotation
    JOINT lThigh
    {
      OFFSET 0.0 -1.70687 -2.19456
      CHANNELS 3 Zrotation Xrotation Yrotation
      JOINT lShin
      {
        OFFSET 0.0 -36.8199 0.73152
        CHANNELS 3 Zrotation Xrotation Yrotation
        JOINT lFoot
        {
          OFFSET -0.73152 -45.1104 -5.12064
          CHANNELS 3 Zrotation Xrotation Yrotation
          End Site
          {
            OFFSET 1.1221 -3.69964 12.103
          }
        }
      }
    }
  }
}
MOTION
Frames: 7
Frame Time: 0.00833333
-109.133 75.9569 -38.4218 -200.889 88.6099 -178.738 -1.98883 29.9215 -2.19136 -2.41775 -8.67652 -0.517367 1.8473 18.6719 -1.56656 1.65975 -48.3742 -2.14905 -0.0 0.0 0.0 -0.0 0.0 0.0 -2.77335e-15 1.06939e-12 3.82505e-14 81.5068 28.6785 0.610984 -14.2053 -7.12099 25.9678 -0.0143504 -3.41809 -0.480958 1.4218e-09 -1.38989e-09 -5.21501e-09 2.45507e-09 -2.40322e-09 -9.01628e-09 1.42181e-09 -1.38989e-09 -5.21502e-09 7.73091 5.47488 0.417314 1.4218e-09 -1.38989e-09 -5.21501e-09 2.90554 0.965183 0.102902 1.42181e-09 -1.38989e-09 -5.21501e-09 10.2786 0.731801 0.0259123 1.4218e-09 -1.38989e-09 -5.215e-09 2.22167 -0.733487 -0.20892 -2.69336e-15 1.06938e-12 3.79896e-14 -80.4264 25.5924 2.19638 12.319 -5.67524 -22.2289 0.669036 -22.5799 3.35047 2.37017e-09 -2.31494e-10 7.20475e-09 3.99591e-09 -3.81531e-10 1.24874e-08 2.37016e-09 -2.31494e-10 7.20476e-09 -7.73091 5.47488 -0.417314 2.37017e-09 -2.31495e-10 7.20475e-09 -2.90554 0.965183 -0.102902 2.37017e-09 -2.31496e-10 7.20475e-09 -10.2786 0.731801 -0.0259123 2.37017e-09 -2.31495e-10 7.20475e-09 -2.22167 -0.733487 0.20892 -2.03217e-16 0.0 -3.88251e-19 -8.37385 -49.1128 -6.84887 -3.33601 75.4765 3.45932 -0.976314 -15.692 -2.29981 2.03217e-16 0.0 3.88251e-19 -9.37187 -49.7533 -1.40696 0.391257 43.3425 -0.40021 1.67348 -12.494 4.55886
-108.297 75.9462 -38.4536 -204.661 88.6112 -182.554 -2.07142 29.9484 -2.26992 -2.37545 -8.71054 -0.527548 1.8801 18.6513 -1.54796 1.60819 -48.3769 -2.13115 -0.0 0.0 0.0 -0.0 0.0 0.0 -3.14767e-15 1.13241e-12 3.78401e-14 81.4978 28.6636 0.588227 -14.2049 -7.12106 25.9674 -0.0144368 -3.42835 -0.482405 1.19904e-09 -1.45894e-09 -3.73519e-09 2.06909e-09 -2.5248e-09 -6.45543e-09 1.19905e-09 -1.45893e-09 -3.7352e-09 7.73091 5.47488 0.417314 1.19904e-09 -1.45893e-09 -3.73519e-09 2.90554 0.965183 0.102902 1.19905e-09 -1.45893e-09 -3.73518e-09 10.2786 0.731801 0.0259123 1.19904e-09 -1.45893e-09 -3.73518e-09 2.22167 -0.733487 -0.20892 -3.12664e-15 1.13241e-12 3.75187e-14 -80.45 25.638 2.23026 12.336 -5.68721 -22.2621 0.674489 -22.6655 3.36463 2.03232e-09 -4.54387e-10 5.36946e-09 3.43861e-09 -7.72143e-10 9.30856e-09 2.03231e-09 -4.54388e-10 5.36946e-09 -7.73091 5.47488 -0.417314 2.03231e-09 -4.54389e-10 5.36946e-09 -2.90554 0.965183 -0.102902 2.03231e-09 -4.54389e-10 5.36946e-09 -10.2786 0.731801 -0.0259123 2.03231e-09 -4.54387e-10 5.36945e-09 -2.22167 -0.733487 0.20892 -2.03217e-16 0.0 -3.88251e-19 -8.66095 -50.4977 -7.00356 -3.30026 75.3903 3.44623 -1.04705 -15.9113 -2.43772 2.03217e-16 0.0 3.88251e-19 -9.4309 -49.1007 -1.30472 0.379909 43.3989 -0.468635 1.77083 -13.0155 4.71929
-107.45 75.9329 -38.4843 -208.73 88.5949 -186.678 -2.15995 29.9745 -2.35082 -2.32862 -8.741 -0.538495 1.90717 18.6396 -1.52986 1.57387 -48.3931 -2.10618 -0.0 0.0 0.0 -0.0 0.0 0.0 -3.56232e-15 1.19883e-12 3.75703e-14 81.4935 28.6425 0.55863 -14.2029 -7.11968 25.9635 -0.0144989 -3.43569 -0.483441 9.87082e-10 -1.42849e-09 -2.7111e-09 1.70249e-09 -2.47327e-09 -4.68372e-09 9.87088e-10 -1.42848e-09 -2.71111e-09 7.73091 5.47488 0.417314 9.87083e-10 -1.42848e-09 -2.7111e-09 2.90554 0.965183 0.102902 9.8709e-10 -1.42848e-09 -2.7111e-09 10.2786 0.731801 0.0259123 9.87083e-10 -1.42848e-09 -2.71109e-09 2.22167 -0.733487 -0.20892 -3.59414e-15 1.19882e-12 3.72224e-14 -80.4684 25.6809 2.26516 12.3467 -5.69471 -22.2829 0.678338 -22.7256 3.37456 1.68524e-09 -5.35962e-10 4.07154e-09 2.85724e-09 -9.1711e-10 7.05915e-09 1.68524e-09 -5.35963e-10 4.07155e-09 -7.73091 5.47488 -0.417314 1.68524e-09 -5.35963e-10 4.07154e-09 -2.90554 0.965183 -0.102902 1.68524e-09 -5.35964e-10 4.07154e-09 -10.2786 0.731801 -0.0259123 1.68525e-09 -5.35961e-10 4.07154e-09 -2.22167 -0.733487 0.20892 -2.03217e-16 0.0 -3.88251e-19 -8.96123 -51.8403 -7.16318 -3.22657 75.1678 3.39762 -1.12419 -16.1253 -2.5859 2.03217e-16 0.0 3.88251e-19 -9.49154 -48.4307 -1.19924 0.36844 43.4541 -0.538981 1.8679 -13.5478 4.86527
-106.595 75.917 -38.5145 -213.068 88.5616 -191.075 -2.25902 29.9975 -2.4346 -2.27573 -8.76622 -0.550431 1.92751 18.6397 -1.51207 1.56313 -48.4288 -2.07059 -0.0 0.0 0.0 -0.0 0.0 0.0 -7.48186e-15 1.2477e-12 3.64098e-14 81.4957 28.6149 0.519782 -14.2005 -7.11769 25.9586 -0.0145521 -3.4419 -0.484316 7.79547e-10 -1.23406e-09 -2.35563e-09 1.34465e-09 -2.13652e-09 -4.06982e-09 7.79552e-10 -1.23405e-09 -2.35564e-09 7.73091 5.47488 0.417314 7.79546e-10 -1.23405e-09 -2.35563e-09 2.90554 0.965183 0.102902 7.79554e-10 -1.23405e-09 -2.35562e-09 10.2786 0.731801 0.0259123 7.79547e-10 -1.23405e-09 -2.35562e-09 2.22167 -0.733487 -0.20892 -7.56413e-15 1.2477e-12 3.6093e-14 -80.4798 25.7291 2.30114 12.3501 -5.6971 -22.2894 0.680392 -22.7574 3.37985 1.30082e-09 -3.95373e-10 3.55398e-09 2.19938e-09 -6.76094e-10 6.15913e-09 1.30082e-09 -3.95374e-10 3.55399e-09 -7.73091 5.47488 -0.417314 1.30082e-09 -3.95374e-10 3.55398e-09 -2.90554 0.965183 -0.102902 1.30082e-09 -3.95374e-10 3.55398e-09 -10.2786 0.731801 -0.0259123 1.30083e-09 -3.95371e-10 3.55397e-09 -2.22167 -0.733487 0.20892 -2.03217e-16 0.0 -3.88251e-19 -9.28096 -53.1474 -7.33115 -3.11717 74.812 3.316 -1.20345 -16.3359 -2.73116 2.03217e-16 0.0 3.88251e-19 -9.55459 -47.7499 -1.08707 0.356962 43.523 -0.612179 1.9604 -14.103 4.97767
-105.733 75.8896 -38.5447 -217.486 88.5083 -195.559 -2.36428 30.0211 -2.5228 -2.21651 -8.78891 -0.563364 1.94367 18.648 -1.49384 1.5694 -48.4797 -2.02584 -0.0 0.0 0.0 -0.0 0.0 0.0 -1.36965e-14 1.31274e-12 3.51569e-14 81.5032 28.5794 0.471339 -14.1973 -7.11499 25.9522 -0.014597 -3.4471 -0.48505 5.52547e-10 -9.24658e-10 -2.35729e-09 9.53905e-10 -1.59992e-09 -4.07454e-09 5.52551e-10 -9.24651e-10 -2.3573e-09 7.73091 5.47488 0.417314 5.52545e-10 -9.24656e-10 -2.35729e-09 2.90554 0.965183 0.102902 5.52552e-10 -9.24652e-10 -2.35729e-09 10.2786 0.731801 0.0259123 5.52545e-10 -9.24651e-10 -2.35728e-09 2.22167 -0.733487 -0.20892 -1.38361e-14 1.31274e-12 3.49085e-14 -80.4881 25.7811 2.34176 12.3491 -5.69643 -22.2876 0.68133 -22.772 3.38226 8.57246e-10 -1.08285e-10 3.44521e-09 1.43291e-09 -1.80884e-10 5.96553e-09 8.57241e-10 -1.08286e-10 3.44522e-09 -7.73091 5.47488 -0.417314 8.57247e-10 -1.08285e-10 3.44521e-09 -2.90554 0.965183 -0.102902 8.57245e-10 -1.08286e-10 3.44521e-09 -10.2786 0.731801 -0.0259123 8.57252e-10 -1.08282e-10 3.44521e-09 -2.22167 -0.733487 0.20892 -2.03217e-16 0.0 -3.88251e-19 -9.61061 -54.421 -7.50274 -2.97497 74.3184 3.20426 -1.29004 -16.5435 -2.88774 2.03217e-16 0.0 3.88251e-19 -9.61676 -47.0547 -0.963743 0.345403 43.6002 -0.688358 2.04937 -14.6753 5.06416
-104.863 75.853 -38.5747 -221.688 88.4326 -199.834 -2.46869 30.048 -2.61308 -2.15461 -8.81081 -0.576784 1.95598 18.6603 -1.4762 1.58349 -48.5357 -1.97868 -0.0 0.0 0.0 -0.0 0.0 0.0 -1.53184e-14 1.41577e-12 3.55331e-14 81.5126 28.538 0.41903 -14.1911 -7.10977 25.9395 -0.0145978 -3.44719 -0.485062 3.38342e-10 -6.08625e-10 -2.47074e-09 5.85393e-10 -1.0517e-09 -4.27274e-09 3.38345e-10 -6.08622e-10 -2.47075e-09 7.73091 5.47488 0.417314 3.38338e-10 -6.08628e-10 -2.47073e-09 2.90554 0.965183 0.102902 3.38345e-10 -6.08623e-10 -2.47074e-09 10.2786 0.731801 0.0259123 3.38337e-10 -6.0862e-10 -2.47073e-09 2.22167 -0.733487 -0.20892 -1.55067e-14 1.41577e-12 3.5353e-14 -80.4947 25.8197 2.38415 12.3438 -5.69262 -22.2773 0.680988 -22.7667 3.38138 4.34171e-10 2.00147e-10 3.4772e-09 6.99862e-10 3.51601e-10 6.01573e-09 4.34168e-10 2.00147e-10 3.47721e-09 -7.73091 5.47488 -0.417314 4.34173e-10 2.00148e-10 3.4772e-09 -2.90554 0.965183 -0.102902 4.3417e-10 2.00147e-10 3.4772e-09 -10.2786 0.731801 -0.0259123 4.34178e-10 2.00152e-10 3.4772e-09 -2.22167 -0.733487 0.20892 -2.03217e-16 0.0 -3.88251e-19 -9.94215 -55.6439 -7.67252 -2.80815 73.6836 3.06998 -1.39013 -16.7436 -3.07482 2.03217e-16 0.0 3.88251e-19 -9.68023 -46.333 -0.841339 0.333574 43.6564 -0.765332 2.1423 -15.2416 5.16196
-103.988 75.8104 -38.5979 -225.509 88.3383 -203.733 -2.56517 30.0807 -2.70311 -2.09367 -8.83365 -0.590178 1.96478 18.6726 -1.46017 1.59616 -48.5868 -1.93593 -0.0 0.0 0.0 -0.0 0.0 0.0 -5.45948e-15 1.5786e-12 3.926e-14 81.5204 28.493 0.368573 -14.1796 -7.10023 25.916 -0.0145191 -3.43807 -0.483776 1.6919e-10 -3.94312e-10 -2.45062e-09 2.94247e-10 -6.80088e-10 -4.23925e-09 1.69191e-10 -3.94312e-10 -2.45063e-09 7.73091 5.47488 0.417314 1.69185e-10 -3.94319e-10 -2.45061e-09 2.90554 0.965183 0.102902 1.69191e-10 -3.94313e-10 -2.45062e-09 10.2786 0.731801 0.0259123 1.69183e-10 -3.94309e-10 -2.45062e-09 2.22167 -0.733487 -0.20892 -5.67282e-15 1.57859e-12 3.91109e-14 -80.5009 25.8275 2.42545 12.334 -5.68559 -22.2582 0.679211 -22.7392 3.37682 1.11254e-10 4.04771e-10 3.38191e-09 1.42284e-10 7.04442e-10 5.8471e-09 1.11252e-10 4.04771e-10 3.38192e-09 -7.73091 5.47488 -0.417314 1.11257e-10 4.04772e-10 3.38191e-09 -2.90554 0.965183 -0.102902 1.11253e-10 4.04772e-10 3.38191e-09 -10.2786 0.731801 -0.0259123 1.11263e-10 4.04776e-10 3.38191e-09 -2.22167 -0.733487 0.20892 -2.03217e-16 0.0 -3.88251e-19 -10.2663 -56.799 -7.83389 -2.62513 72.9042 2.92099 -1.51008 -16.9316 -3.31161 2.03217e-16 0.0 3.88251e-19 -9.74649 -45.5728 -0.731418 0.321058 43.6625 -0.840755 2.248 -15.7789 5.30856
